<svg width="37" height="37" viewBox="0 0 37 37" fill="none" xmlns="http://www.w3.org/2000/svg">
<path fill-rule="evenodd" clip-rule="evenodd" d="M36.4559 19.6941C36.4426 19.8931 36.4303 20.0911 36.4109 20.2873C36.3994 20.4044 36.3826 20.5196 36.3694 20.6348C36.3482 20.8122 36.3279 20.9886 36.3023 21.1632C36.2838 21.2857 36.2617 21.4072 36.2405 21.5287C36.2123 21.6953 36.1849 21.8618 36.1522 22.0265C36.1275 22.1508 36.0993 22.2732 36.0719 22.3965C36.0366 22.5568 36.0013 22.7161 35.9616 22.8745C35.9307 22.9988 35.8963 23.1212 35.8628 23.2445C35.8204 23.3993 35.778 23.5542 35.7312 23.7081C35.6485 23.9825 35.559 24.2548 35.4629 24.5246C35.3239 24.9131 35.1723 25.2968 35.0084 25.6751C34.8941 25.9344 34.7752 26.1916 34.6518 26.4465C34.5812 26.5897 34.5079 26.7301 34.4347 26.8705C34.3764 26.9804 34.3191 27.0893 34.259 27.1982C34.181 27.3381 34.1013 27.4771 34.0199 27.615C33.9581 27.7194 33.8972 27.8238 33.8336 27.9274C33.748 28.0669 33.6589 28.2037 33.5688 28.3406C33.5044 28.4387 33.4417 28.5377 33.3755 28.634C33.2802 28.7745 33.1805 28.9113 33.0808 29.049C33.0154 29.139 32.9528 29.2291 32.8857 29.3182C32.7763 29.464 32.6624 29.6053 32.5477 29.7476C32.4868 29.8241 32.4276 29.9015 32.3658 29.9771C32.2255 30.1464 32.0799 30.3111 31.9342 30.4758C31.8936 30.52 31.8566 30.5668 31.816 30.6109C31.6262 30.8188 31.4329 31.0223 31.2334 31.2212C31.1981 31.2572 31.1593 31.2914 31.1231 31.3274C30.9608 31.4882 30.7954 31.6458 30.6271 31.8C30.5556 31.8658 30.4815 31.927 30.41 31.9909C30.2723 32.1124 30.1355 32.2339 29.9943 32.351C29.9087 32.4221 29.8213 32.4896 29.7348 32.5589C29.6024 32.6642 29.4709 32.7696 29.3358 32.8722C29.2414 32.9433 29.1452 33.0108 29.0499 33.0801L28.7507 33.2935C28.7789 33.2728 28.8098 33.2557 28.8389 33.2359C28.8054 33.2593 28.771 33.2791 28.7374 33.3025C28.7092 33.3223 28.6818 33.343 28.6536 33.3619C28.5521 33.4312 28.4497 33.4978 28.3473 33.5644C28.1731 33.679 27.9968 33.7904 27.8186 33.8984L27.7568 33.9344C27.7701 33.9272 27.7842 33.92 27.7966 33.9119L27.6121 34.0208C27.4815 34.0983 27.3508 34.1739 27.2184 34.2477L27.0446 34.3413C26.9431 34.3962 26.8398 34.4502 26.7365 34.5034L26.6827 34.5304C26.6033 34.5709 26.5256 34.6123 26.4453 34.6519C26.3376 34.7041 26.2299 34.7563 26.1205 34.8076L26.0322 34.8472C25.9351 34.8922 25.838 34.9363 25.7401 34.9796L25.6977 34.9985C25.6121 35.0363 25.5247 35.0723 25.4382 35.1092C25.2875 35.1728 25.1356 35.2337 24.9828 35.2919C24.8795 35.3315 24.7771 35.3702 24.6739 35.4081L24.5406 35.4576C24.4267 35.4981 24.3111 35.5368 24.1955 35.5746C24.1011 35.6061 24.0066 35.6376 23.9113 35.6673L23.8733 35.679C23.771 35.7114 23.6686 35.742 23.5653 35.7717L23.2705 35.8564C23.1443 35.8906 23.019 35.9257 22.8919 35.9581L22.8275 35.9725L22.6686 36.0121C22.6968 36.0058 22.7233 35.9968 22.7515 35.9905L22.568 36.0328C22.6006 36.0247 22.635 36.0202 22.6686 36.0121C22.5909 36.031 22.5124 36.0454 22.4347 36.0634L22.4232 36.0661C22.297 36.094 22.1717 36.1237 22.0446 36.1489C21.9131 36.175 21.7807 36.1975 21.6483 36.22C21.5706 36.2335 21.4938 36.2506 21.4162 36.2632C21.4523 36.2569 21.4876 36.2479 21.5238 36.2416L21.3323 36.274C21.3605 36.2695 21.3888 36.2677 21.4162 36.2632L21.2864 36.2821L21.1823 36.3002C21.0066 36.3263 20.8292 36.3461 20.6518 36.3677C20.5371 36.3812 20.4223 36.3983 20.3058 36.4091L20.2793 36.4127H20.2626C20.2149 36.4172 20.1655 36.419 20.1178 36.4235C20.0084 36.4334 19.8989 36.4397 19.7895 36.4478C19.4179 36.4748 19.0437 36.4919 18.6659 36.4955C18.6324 36.4955 18.6006 36.5 18.568 36.5H18.4329C18.4011 36.5 18.3711 36.4964 18.3394 36.4955C17.953 36.4913 17.5668 36.4747 17.1814 36.446C17.0763 36.4379 16.9704 36.4316 16.8654 36.4226C16.823 36.4181 16.7798 36.4172 16.7365 36.4127H16.7207C16.4063 36.38 16.0928 36.3386 15.7807 36.2885C15.8257 36.2957 15.8716 36.2993 15.9166 36.3056C15.8045 36.2885 15.6898 36.2786 15.5786 36.2605L15.4197 36.2317C15.462 36.2389 15.5035 36.2506 15.5459 36.2578C15.47 36.2452 15.3959 36.2272 15.3199 36.2137L15.2935 36.2092C15.2467 36.2011 15.2017 36.1894 15.1558 36.1813C14.8569 36.127 14.5594 36.0651 14.2635 35.9959L14.3482 36.013L14.2087 35.9806L14.2635 35.9959C14.1355 35.9653 14.011 35.9266 13.8839 35.8924L13.9042 35.8978C13.891 35.8951 13.8786 35.8906 13.8654 35.887L13.8839 35.8924C13.6271 35.8248 13.3703 35.7573 13.1178 35.679L13.0861 35.67C13.0516 35.6592 13.0181 35.6466 12.9837 35.6349L12.9678 35.6295C12.8257 35.5836 12.6862 35.5305 12.545 35.481L12.7286 35.5449C12.6315 35.5116 12.5353 35.4765 12.4391 35.4414L12.545 35.481C12.3288 35.4054 12.1125 35.3297 11.9007 35.246L11.7939 35.2037C11.7789 35.1974 11.7648 35.1902 11.7498 35.1848C11.6046 35.1251 11.4601 35.0636 11.3164 35.0003C11.4109 35.0417 11.5062 35.0804 11.6006 35.12C11.4603 35.0615 11.3208 34.9994 11.1823 34.9381C11.2273 34.958 11.2714 34.9805 11.3164 35.0003C11.1681 34.9354 11.0181 34.8724 10.8716 34.8031L10.8398 34.7896C10.8204 34.7806 10.8001 34.7725 10.7807 34.7626C10.7109 34.7302 10.6447 34.6906 10.5759 34.6573C10.4347 34.5871 10.2935 34.5187 10.154 34.4457C10.2732 34.5078 10.395 34.5655 10.5159 34.6258C10.3427 34.5397 10.1709 34.4508 10.0004 34.3593C10.0525 34.3872 10.1019 34.4178 10.154 34.4457C10.0366 34.3836 9.92012 34.3224 9.8045 34.2585L9.76214 34.236C9.71889 34.2126 9.67652 34.1865 9.63416 34.1622C9.57855 34.1316 9.52648 34.0965 9.47176 34.0641L9.42498 34.037L9.44881 34.0506C9.25728 33.9389 9.0684 33.8255 8.88217 33.7076C8.93778 33.7427 8.99073 33.7823 9.04722 33.8174C8.95631 33.7616 8.86805 33.7022 8.77891 33.6455L8.77096 33.6401L8.63504 33.5527C8.5662 33.5077 8.50088 33.4582 8.43292 33.4123C8.28729 33.3142 8.13813 33.2215 7.99515 33.1188C8.10194 33.1954 8.2158 33.2629 8.32436 33.3367C8.13372 33.2071 7.94131 33.0801 7.75596 32.9424L7.79479 32.9721C7.78155 32.9631 7.7692 32.9523 7.75596 32.9424C7.58297 32.8128 7.41439 32.6777 7.24581 32.5427L7.23786 32.5364L7.2361 32.5355C7.16196 32.4752 7.08605 32.4176 7.01191 32.3564L7.01103 32.3555L6.98191 32.3303C6.77714 32.1592 6.57414 31.9846 6.37732 31.8045L6.36143 31.791L6.34907 31.7793C6.2767 31.7136 6.20962 31.6443 6.13901 31.5768C5.99956 31.4454 5.86011 31.3139 5.72507 31.178L5.7083 31.1618C5.65269 31.106 5.59973 31.0475 5.54501 30.9908C5.58914 31.0367 5.63063 31.0853 5.67564 31.1303C5.63063 31.0844 5.58826 31.0358 5.54325 30.989L5.47087 30.9115C5.34819 30.7819 5.22462 30.6541 5.10547 30.5209L5.10371 30.5182C5.03575 30.4425 4.96955 30.3651 4.90335 30.2886L4.85216 30.2283C4.67243 30.019 4.49705 29.8059 4.32613 29.5891C4.30847 29.5675 4.2917 29.5441 4.27493 29.5216C4.1089 29.3094 3.94763 29.0933 3.79126 28.8735C3.77184 28.8456 3.75419 28.8168 3.73477 28.7898C3.63558 28.6473 3.53819 28.5036 3.44263 28.3586C3.39409 28.2847 3.34378 28.2109 3.29612 28.1353C3.27405 28.1011 3.25463 28.066 3.23345 28.0318C3.14359 27.8885 3.05591 27.7439 2.97043 27.5979C2.95984 27.5781 2.94748 27.5592 2.93601 27.5403C2.90335 27.4854 2.86981 27.4314 2.83804 27.3755C2.81421 27.3341 2.79303 27.2909 2.77008 27.2486C2.6874 27.0991 2.60678 26.9485 2.52824 26.7967C2.49029 26.7256 2.45057 26.6563 2.41439 26.5843C2.39144 26.5393 2.37114 26.4933 2.34907 26.4483C2.27085 26.2889 2.19552 26.1281 2.12312 25.9658C2.094 25.9037 2.06311 25.8416 2.03486 25.7786L1.98897 25.6697C1.90688 25.4824 1.8301 25.2925 1.75508 25.1016L1.69329 24.9495L1.6677 24.8784C1.58062 24.6483 1.49852 24.4163 1.42145 24.1825L1.39144 24.0961L1.38261 24.0682C1.16439 23.3995 0.985777 22.718 0.847749 22.0274L0.840688 21.9914C0.826567 21.9203 0.816858 21.8483 0.803619 21.7781C0.764742 21.5741 0.729432 21.3694 0.697705 21.1641L0.684466 21.0849C0.670344 20.9841 0.661518 20.8815 0.649162 20.7798C0.624537 20.5953 0.603057 20.4104 0.584731 20.2252C0.582966 20.2072 0.579435 20.1892 0.578553 20.1703C0.575905 20.146 0.576787 20.1208 0.575022 20.0956C0.526395 19.565 0.501362 19.0325 0.5 18.4995C0.5 18.2682 0.508826 18.0377 0.517652 17.8082C0.522948 17.6777 0.528244 17.5471 0.535305 17.4166C0.545896 17.2429 0.560018 17.0709 0.575022 16.899C0.565313 17.0034 0.552074 17.1078 0.545013 17.2132C0.552074 17.1069 0.566196 17.0025 0.575022 16.8963C0.586496 16.7667 0.59797 16.6379 0.612092 16.5092C0.631509 16.3382 0.653575 16.1671 0.677405 15.997C0.695057 15.8692 0.71271 15.7422 0.73301 15.6162V15.6153C0.760371 15.447 0.791262 15.2795 0.823036 15.113V15.1112C0.846867 14.9861 0.870697 14.8609 0.897176 14.7367V14.7358C0.933107 14.5702 0.971358 14.4052 1.01192 14.2407C1.04104 14.1183 1.07105 13.9949 1.10371 13.8734V13.8716C1.14695 13.7096 1.19285 13.5502 1.24051 13.3909L1.24139 13.3873C1.2767 13.2667 1.312 13.1451 1.34996 13.0263L1.35084 13.0236C1.40115 12.8661 1.45499 12.7103 1.50971 12.5546L1.51147 12.5501C1.55296 12.4322 1.59356 12.3143 1.63769 12.1972L1.63857 12.1945C1.69594 12.0406 1.75684 11.8894 1.81774 11.7381L1.82039 11.7318C1.86717 11.6166 1.91395 11.5005 1.96249 11.3861L1.96425 11.3834C2.03036 11.2325 2.09833 11.0825 2.16814 10.9333C2.22021 10.8208 2.2714 10.7074 2.32613 10.5967L2.32789 10.5931C2.3985 10.4481 2.47264 10.3059 2.54766 10.1637L2.55207 10.1547C2.60944 10.0457 2.66593 9.93502 2.72595 9.827L2.72771 9.8234C2.8045 9.68387 2.8857 9.54613 2.96602 9.4084L2.9722 9.3985C3.03486 9.29228 3.09665 9.18515 3.16108 9.07983L3.16372 9.07623C3.24669 8.9412 3.33319 8.80887 3.41968 8.67654L3.42674 8.66484C3.4947 8.56221 3.5609 8.45869 3.63063 8.35697L3.63327 8.35247C3.72154 8.22284 3.81421 8.09591 3.906 7.96808L3.91571 7.95548C3.98808 7.85555 4.05869 7.75563 4.13283 7.65751L4.13636 7.65301C4.22992 7.52878 4.32789 7.40725 4.42586 7.28483L4.43645 7.27132C4.51324 7.175 4.58914 7.07868 4.6677 6.98416C4.6686 6.98246 4.6698 6.98093 4.67123 6.97966C4.77008 6.86083 4.87334 6.7438 4.97573 6.62768L4.98897 6.61328C5.07017 6.52056 5.1496 6.42783 5.23257 6.33691L5.23698 6.33331C5.34113 6.21899 5.44969 6.10826 5.55649 5.99754L5.57149 5.98223C5.65711 5.89401 5.74095 5.80489 5.82833 5.71847C5.82976 5.7172 5.83096 5.71568 5.83186 5.71397L5.86364 5.68157L5.83363 5.71307C5.92807 5.61945 6.02604 5.52943 6.12224 5.43761C6.04281 5.51323 5.96072 5.58614 5.88217 5.66266C5.97485 5.57174 6.07193 5.48442 6.16637 5.3953L6.18314 5.38C6.27317 5.29538 6.36143 5.20986 6.45234 5.12794L6.45675 5.12434C6.55472 5.03522 6.6571 4.9506 6.75772 4.86328C6.67299 4.9362 6.5865 5.00551 6.50353 5.08023C6.60238 4.99201 6.70477 4.90829 6.8045 4.82277C6.81079 4.81715 6.81727 4.81175 6.82392 4.80657C6.91659 4.72735 7.00838 4.64633 7.10282 4.56892L7.10724 4.56531L7.15313 4.52661L7.10812 4.56441C7.2105 4.4807 7.31553 4.40058 7.41968 4.31956C7.33142 4.38887 7.24051 4.45549 7.15313 4.52661C7.2564 4.44199 7.36408 4.36187 7.46999 4.27995L7.49029 4.26375C7.58738 4.18903 7.68182 4.11341 7.77979 4.0405L7.78332 4.0378L7.82833 4.00359L7.78597 4.036C7.89276 3.95678 8.00132 3.88206 8.109 3.80554C8.01633 3.87216 7.92012 3.93517 7.82833 4.00359C7.93689 3.92257 8.04987 3.84695 8.16108 3.76954L8.18403 3.75333C8.28288 3.68312 8.38085 3.612 8.48147 3.54448L8.485 3.54178L8.52824 3.51208L8.48941 3.53908C8.59974 3.46527 8.71359 3.39595 8.8248 3.32394C8.72683 3.38695 8.62533 3.44726 8.52824 3.51208C8.64298 3.43556 8.76037 3.36444 8.87688 3.29063L8.90247 3.27532C9.00397 3.21051 9.10459 3.14389 9.20786 3.08178L9.21139 3.07998C9.22489 3.07075 9.23873 3.06205 9.25287 3.05387L9.21756 3.07638C9.3323 3.00706 9.44969 2.94225 9.5662 2.87563C9.46205 2.93505 9.35525 2.99176 9.25287 3.05387C9.37202 2.98186 9.49559 2.91524 9.61651 2.84683L9.64475 2.83062C9.7489 2.77211 9.85128 2.7109 9.95631 2.65328L9.95984 2.65148L9.99956 2.62988L9.96778 2.64788C10.0878 2.58307 10.2114 2.52275 10.3323 2.46064C10.222 2.51735 10.109 2.57047 9.99956 2.62988C10.1249 2.56236 10.2529 2.50115 10.3791 2.43634C10.3896 2.43178 10.3999 2.42667 10.41 2.42103C10.5159 2.36792 10.62 2.31211 10.7277 2.2608L10.7304 2.259L10.7683 2.24009L10.741 2.25449C10.8672 2.19418 10.996 2.13837 11.124 2.08076C11.0057 2.13477 10.8857 2.18428 10.7683 2.24009C10.8989 2.17798 11.0322 2.12216 11.1646 2.06275L11.1981 2.04745C11.3049 1.99974 11.4109 1.94933 11.5194 1.90432L11.5221 1.90252C11.534 1.8978 11.5458 1.89269 11.5574 1.88721L11.5344 1.89801C11.6686 1.8413 11.8054 1.79089 11.9413 1.73778C11.8133 1.78729 11.6845 1.835 11.5574 1.88721C11.6933 1.8305 11.8327 1.78009 11.9704 1.72608L12.0084 1.71167C12.1161 1.66936 12.222 1.62525 12.3314 1.58474H12.3332C12.3442 1.58 12.3554 1.5758 12.3667 1.57214L12.3473 1.57934C12.4929 1.52623 12.6421 1.47942 12.7895 1.42991C12.6483 1.47762 12.5062 1.52173 12.3667 1.57214C12.5088 1.52083 12.6536 1.47582 12.7966 1.42721L12.8407 1.41281C12.9484 1.3768 13.0534 1.33809 13.1611 1.30478H13.1628L13.1937 1.29488L13.1787 1.30028C13.3323 1.25257 13.4885 1.21116 13.643 1.16795L13.6192 1.17515L13.6809 1.15715L13.7348 1.14184C13.8266 1.11664 13.9166 1.08873 14.0093 1.06443H14.0101L14.0375 1.05723L14.0287 1.05993C14.1876 1.01942 14.3491 0.985209 14.5097 0.949201L14.4532 0.961804C14.5344 0.9429 14.6147 0.923095 14.6968 0.905991L14.7745 0.887987C14.808 0.880786 14.8407 0.871784 14.8733 0.865482L14.8742 0.864582L14.8981 0.860981L14.8945 0.861881C15.0605 0.827674 15.229 0.800668 15.3976 0.771861L15.3076 0.787165C15.4576 0.761059 15.6059 0.730452 15.756 0.707947L15.7568 0.707047L15.7718 0.705246H15.7754C15.9095 0.684542 16.0463 0.671038 16.1814 0.653034C16.0905 0.664737 15.9978 0.675539 15.9069 0.688142C16.041 0.669238 16.177 0.653034 16.312 0.636831L16.1814 0.653034C16.3376 0.63323 16.4929 0.609825 16.6509 0.593621H16.6518L16.6703 0.591821H16.6712C16.8045 0.578318 16.9395 0.571116 17.0737 0.561214L16.9422 0.571116C17.0534 0.562114 17.1637 0.553112 17.2749 0.54591L17.0737 0.561214C17.2352 0.548611 17.3959 0.532407 17.5583 0.524305H17.5591L17.5794 0.523405C17.7136 0.516204 17.8495 0.516204 17.9837 0.512603L17.9086 0.514403C18.1055 0.508102 18.3014 0.5 18.5 0.5C28.4417 0.5 36.5 8.55771 36.5 18.4995C36.5 18.8011 36.4912 19.1009 36.4771 19.3989C36.4718 19.4979 36.462 19.596 36.4559 19.6941ZM8.05693 24.2572C8.19373 24.8604 8.79656 25.2385 9.40027 25.0998C15.665 23.6685 20.9854 24.2518 25.2114 26.8354C25.741 27.1577 26.432 26.993 26.7551 26.4609C26.8317 26.3353 26.8829 26.1954 26.9057 26.0493C26.9284 25.9032 26.9222 25.7539 26.8875 25.6102C26.8528 25.4666 26.7902 25.3315 26.7035 25.2129C26.6168 25.0944 26.5077 24.9947 26.3826 24.9198C21.6377 22.0193 15.7568 21.3451 8.89982 22.9132C8.75731 22.9438 8.6222 23.003 8.50238 23.0874C8.38256 23.1719 8.28043 23.2798 8.20196 23.4049C8.12349 23.53 8.07024 23.6698 8.04534 23.8162C8.02044 23.9625 8.02438 24.1125 8.05693 24.2572ZM7.33848 18.9902C7.56443 19.731 8.34819 20.1487 9.09135 19.9246C14.8142 18.1881 22.1902 19.0487 27.0269 22.0229C27.6862 22.4271 28.5512 22.221 28.9572 21.562C29.0534 21.405 29.1178 21.23 29.1467 21.0472C29.1756 20.8644 29.1684 20.6775 29.1255 20.4976C29.0825 20.3177 29.0048 20.1484 28.8968 19.9996C28.7887 19.8508 28.6526 19.7255 28.4965 19.6311C22.9395 16.2184 14.8133 15.2561 8.27493 17.2402C8.1002 17.2914 7.93718 17.3775 7.79531 17.4935C7.65343 17.6094 7.53553 17.753 7.44843 17.9157C7.36133 18.0785 7.30676 18.2573 7.28789 18.4417C7.26902 18.6261 7.28621 18.8126 7.33848 18.9902ZM30.8654 13.561C24.1858 9.59565 13.6165 9.22296 7.25816 11.1539C7.04846 11.2151 6.85278 11.3183 6.68252 11.4574C6.51227 11.5965 6.37083 11.7687 6.26644 11.964C6.16205 12.1594 6.09679 12.374 6.07446 12.5953C6.05213 12.8166 6.07317 13.0402 6.13636 13.2532C6.40556 14.1435 7.34554 14.6449 8.2361 14.3748C13.7745 12.6941 23.3447 13.0119 29.1478 16.457C29.5316 16.6855 29.9878 16.7517 30.4188 16.6415C30.8498 16.5313 31.2214 16.2534 31.4541 15.8674C31.5668 15.6773 31.641 15.4661 31.6724 15.2463C31.7037 15.0265 31.6916 14.8025 31.6367 14.5875C31.5819 14.3726 31.4854 14.171 31.3529 13.9947C31.2204 13.8184 31.0547 13.671 30.8654 13.561ZM18.4523 0.5H18.5C18.327 0.5 18.1558 0.508102 17.9837 0.512603C18.1399 0.508102 18.2952 0.5 18.4523 0.5Z" fill="#1DB954"/>
</svg>
